<?xml version="1.0" encoding="UTF-8"?>
<svg id="Layer_1" data-name="Layer 1" xmlns="http://www.w3.org/2000/svg" width="270.51" height="58" viewBox="0 0 270.51 58">
  <defs>
    <style>
      .cls-1 {
        fill: #3c3c3b;
      }
    </style>
  </defs>
  <g>
    <path class="cls-1" d="m74.49,44.1q-.1-.1-.1-.2v-7.8c0-.1,0-.2.1-.2s.1-.1.2-.1h.6c.1,0,.2.1.3.2l2.5,4.9,2.6-4.9c.1-.1.2-.2.3-.2h.6c.1,0,.2,0,.2.1s.1.1.1.2v7.8q0,.1-.1.2t-.2.1h-.5q-.1,0-.2-.1-.1-.1-.1-.2v-5.9l-2,3.9c-.1.2-.2.2-.4.2h-.4c-.2,0-.3-.1-.4-.2l-2-3.9v5.9q0,.1-.1.2-.1.1-.2.1h-.5c-.2-.1-.3-.1-.3-.1Z"/>
    <path class="cls-1" d="m84.29,44c-.3-.2-.6-.4-.8-.6-.2-.3-.3-.6-.3-.9,0-.5.2-1,.6-1.3s1-.6,1.7-.7l1.8-.2v-.3c0-.8-.5-1.2-1.4-1.2-.4,0-.7.1-.9.2s-.4.3-.5.5c0,.1-.1.1-.1.2h-.6q-.1,0-.2-.1t-.1-.2c0-.2.1-.4.3-.6.2-.2.4-.5.8-.6.4-.2.8-.3,1.3-.3.9,0,1.5.2,1.9.6.4.4.6.9.6,1.5v3.9q0,.1-.1.2-.1.1-.2.1h-.5q-.1,0-.2-.1c0-.1-.1-.1-.1-.2v-.5c-.2.3-.4.5-.8.7-.3.2-.8.3-1.3.3-.2-.1-.6-.2-.9-.4Zm2.6-1.1c.3-.3.5-.8.5-1.5v-.3l-1.4.2c-.6.1-1,.2-1.3.4s-.4.4-.4.7.1.6.4.7c.3.2.6.3.9.3.6,0,1-.2,1.3-.5Z"/>
    <path class="cls-1" d="m90.59,43.5c-.4-.5-.6-1.2-.7-2v-.8c0-.8.3-1.5.7-2,.4-.5,1-.8,1.9-.8s1.5.3,1.9.9v-2.7q0-.1.1-.2t.2-.1h.5q.1,0,.2.1.1.1.1.2v7.9q0,.1-.1.2-.1.1-.2.1h-.5q-.1,0-.2-.1c0-.1-.1-.1-.1-.2v-.5c-.5.6-1.1.9-2,.9-.8-.1-1.4-.4-1.8-.9Zm3.3-.7c.3-.4.4-.8.5-1.3v-1c0-.5-.2-.9-.5-1.3s-.7-.4-1.2-.4c-.6,0-1,.2-1.2.5s-.4.8-.4,1.4v.3c0,1.5.6,2.3,1.7,2.3.5,0,.9-.1,1.1-.5Z"/>
    <path class="cls-1" d="m97.79,43.5c-.5-.5-.7-1.2-.8-2.1v-.8c0-.9.3-1.5.8-2s1.1-.8,1.9-.8c.9,0,1.5.3,2,.8.5.6.7,1.3.7,2.3v.2q0,.1-.1.2t-.2.1h-4.1v.1c0,.5.2,1,.5,1.3s.7.5,1.2.5c.4,0,.7-.1.9-.2s.4-.3.5-.5c.1-.1.1-.2.2-.2h.7q.1,0,.2.1c.1,0,.1.1.1.2,0,.2-.1.4-.3.6-.2.2-.5.5-.9.6-.4.2-.8.3-1.3.3-.9.1-1.5-.2-2-.7Zm3.6-2.9h0c0-.6-.2-1-.5-1.4-.3-.3-.7-.5-1.2-.5s-.9.2-1.2.5-.4.8-.4,1.4h3.3Z"/>
    <path class="cls-1" d="m107.99,44.1c-.1,0-.1-.1-.1-.2l-1.7-5.5v-.1q0-.1.1-.2s.1-.1.2-.1h.5q.1,0,.2.1c.1,0,.1.1.1.1l1.3,4.5,1.4-4.5c0-.1.1-.1.1-.2q.1-.1.2-.1h.4c.1,0,.2,0,.2.1q.1.1.1.2l1.4,4.5,1.3-4.5s0-.1.1-.1.1-.1.2-.1h.5q.1,0,.2.1s.1.1.1.2v.1l-1.7,5.5c0,.1-.1.2-.1.2,0,0-.1.1-.2.1h-.4c-.2,0-.3-.1-.4-.3l-1.4-4.3-1.4,4.3c-.1.2-.2.3-.4.3h-.4c-.3-.1-.4-.1-.4-.1Z"/>
    <path class="cls-1" d="m116.09,36.7q-.1-.1-.1-.2v-.6q0-.1.1-.2t.2-.1h.7q.1,0,.2.1.1.1.1.2v.6q0,.1-.1.2-.1.1-.2.1h-.7c-.1,0-.2,0-.2-.1Zm0,7.4q-.1-.1-.1-.2v-5.6q0-.1.1-.2.1-.1.2-.1h.5q.1,0,.2.1.1.1.1.2v5.6q0,.1-.1.2-.1.1-.2.1h-.5c0-.1-.1-.1-.2-.1Z"/>
    <path class="cls-1" d="m119.49,42.1v-3.2h-.9q-.1,0-.2-.1t-.1-.2v-.4q0-.1.1-.2c0-.1.1-.1.2-.1h.9v-2q0-.1.1-.2c0-.1.1-.1.2-.1h.5q.1,0,.2.1.1.1.1.2v2h1.5q.1,0,.2.1.1.1.1.2v.4q0,.1-.1.2c-.1,0-.1.1-.2.1h-1.5v3.1c0,.4.1.7.2.9s.4.3.7.3h.7q.1,0,.2.1.1.1.1.2v.4q0,.1-.1.2-.1.1-.2.1h-.8c-1.3-.1-1.9-.7-1.9-2.1Z"/>
    <path class="cls-1" d="m123.59,44.1q-.1-.1-.1-.2v-7.9c0-.1,0-.2.1-.2s.1-.1.2-.1h.5c.1,0,.2,0,.2.1,0,0,.1.1.1.2v2.8c.2-.3.5-.5.8-.7s.7-.2,1.2-.2c.8,0,1.4.2,1.8.7s.6,1.1.6,1.9v3.4q0,.1-.1.2t-.2.1h-.6q-.1,0-.2-.1-.1-.1-.1-.2v-3.3c0-.6-.1-1-.4-1.3s-.7-.5-1.2-.5-.9.2-1.2.5c-.3.3-.5.8-.5,1.3v3.3q0,.1-.1.2-.1.1-.2.1h-.5q0-.1-.1-.1Z"/>
    <path class="cls-1" d="m133.89,44.1c0-.1-.1-.1-.1-.2v-7.8c0-.1,0-.2.1-.2,0-.1.1-.1.2-.1h.7l.1.1,4,6.1v-6c0-.1,0-.2.1-.2q.1-.1.2-.1h.5c.1,0,.2,0,.2.1q.1.1.1.2v7.7q0,.1-.1.2t-.2.1h-.5c-.1,0-.2-.1-.3-.2l-4-6.1v6q0,.1-.1.2-.1.1-.2.1h-.5c-.1.1-.2.1-.2.1Z"/>
    <path class="cls-1" d="m142.39,43.5c-.5-.5-.7-1.1-.8-2v-1c0-.8.3-1.5.8-2s1.1-.7,2-.7,1.5.2,2,.7.7,1.1.8,2v1c0,.8-.3,1.5-.8,2s-1.1.7-2,.7-1.5-.2-2-.7Zm3.2-.6c.3-.3.5-.8.5-1.4v-1c0-.6-.2-1.1-.5-1.4-.3-.3-.7-.5-1.2-.5s-.9.2-1.2.5-.5.8-.5,1.4v1c0,.6.2,1.1.5,1.4.3.3.7.5,1.2.5s.9-.2,1.2-.5Z"/>
    <path class="cls-1" d="m149.09,43.5c-.4-.5-.6-1.2-.7-2v-.8c0-.8.3-1.5.7-2s1-.8,1.9-.8c.8,0,1.5.3,1.9.9v-2.7q0-.1.1-.2t.2-.1h.5q.1,0,.2.1.1.1.1.2v7.9q0,.1-.1.2-.1.1-.2.1h-.5q-.1,0-.2-.1c0-.1-.1-.1-.1-.2v-.5c-.5.6-1.1.9-2,.9-.8-.1-1.4-.4-1.8-.9Zm3.3-.7c.3-.4.4-.8.5-1.3v-1c0-.5-.2-.9-.5-1.3s-.7-.5-1.2-.5c-.6,0-1,.2-1.2.5-.3.4-.4.8-.4,1.4v.3c0,1.5.6,2.3,1.7,2.3.4.1.8,0,1.1-.4Z"/>
    <path class="cls-1" d="m156.29,43.5c-.5-.5-.7-1.2-.8-2.1v-.8c0-.9.3-1.5.8-2s1.1-.8,1.9-.8c.9,0,1.5.3,2,.8.5.6.7,1.3.7,2.3v.2q0,.1-.1.2t-.2.1h-4.1v.1c0,.5.2,1,.5,1.3s.7.5,1.2.5c.4,0,.7-.1.9-.2.2-.1.4-.3.5-.5.1-.1.1-.2.2-.2h.7q.1,0,.2.1c.1,0,.1.1.1.2,0,.2-.1.4-.3.6-.2.2-.5.5-.9.6-.4.2-.8.3-1.3.3-.9.1-1.6-.2-2-.7Zm3.6-2.9h0c0-.6-.2-1-.5-1.4s-.7-.5-1.2-.5-.9.2-1.2.5-.4.8-.4,1.4h3.3Z"/>
    <path class="cls-1" d="m162.39,44.1q-.1-.1-.1-.2v-.8q0-.1.1-.2t.2-.1h.8q.1,0,.2.1.1.1.1.2v.8q0,.1-.1.2-.1.1-.2.1h-.8c-.1-.1-.2-.1-.2-.1Z"/>
    <path class="cls-1" d="m163.99,46.3c0-.1-.1-.1-.1-.2v-.3q0-.1.1-.2s.1-.1.2-.1h.2c.4,0,.6-.1.8-.3.1-.2.2-.5.2-.9v-6.1c0-.1,0-.2.1-.2s.1-.1.2-.1h.5q.1,0,.2.1t.1.2v6.1c0,1.4-.7,2.1-2,2.1h-.2q-.2,0-.3-.1Zm1.3-9.6q-.1-.1-.1-.2v-.6q0-.1.1-.2.1-.1.2-.1h.7q.1,0,.2.1.1.1.1.2v.6q0,.1-.1.2-.1.1-.2.1h-.7q-.1,0-.2-.1Z"/>
    <path class="cls-1" d="m168.89,44c-.4-.2-.7-.4-.8-.6-.2-.2-.3-.4-.3-.6q0-.1.1-.2c.1,0,.1-.1.2-.1h.6l.1.1c.2.2.4.4.6.5.2.1.5.2.9.2s.8-.1,1-.2c.3-.2.4-.4.4-.7,0-.2-.1-.4-.2-.5-.1-.1-.3-.2-.6-.3s-.6-.2-1.1-.3c-.7-.2-1.2-.4-1.5-.7s-.4-.7-.4-1.1c0-.3.1-.6.3-.8.2-.3.4-.5.8-.7.3-.2.8-.3,1.2-.3.5,0,.9.1,1.3.2.4.2.6.4.8.6.2.2.3.4.3.6q0,.1-.1.2c-.1,0-.1.1-.2.1h-.5c-.1,0-.2,0-.2-.1-.1-.2-.2-.3-.3-.4-.1-.1-.2-.2-.4-.2-.2-.1-.4-.1-.7-.1-.4,0-.7.1-.9.2-.2.2-.3.4-.3.6s0,.3.1.4c.1.1.3.2.5.3s.6.2,1.1.3c.8.2,1.3.4,1.6.7s.5.7.5,1.1c0,.3-.1.7-.3.9-.2.3-.5.5-.9.7s-.8.2-1.4.2c-.4.3-.9.2-1.3,0Z"/>
  </g>
  <g>
    <path class="cls-1" d="m87.21,16.17l-4.48,12.64h-3.85l-4.48-12.64h3.28l3.13,9.54,3.15-9.54h3.26Z"/>
    <path class="cls-1" d="m92.46,16.17v12.64h-3.08v-12.64h3.08Z"/>
    <path class="cls-1" d="m103.82,16.96c1,.53,1.77,1.27,2.31,2.22s.82,2.06.82,3.3-.27,2.33-.82,3.29-1.32,1.7-2.32,2.23c-1,.53-2.16.79-3.48.79h-4.73v-12.64h4.73c1.33,0,2.5.26,3.49.79Zm-.97,8.23c.65-.64.97-1.54.97-2.7s-.32-2.07-.97-2.72-1.55-.97-2.72-.97h-1.46v7.34h1.46c1.16,0,2.07-.32,2.72-.95Z"/>
    <path class="cls-1" d="m112.66,18.64v2.56h4.12v2.38h-4.12v2.77h4.66v2.47h-7.74v-12.64h7.74v2.47h-4.66Z"/>
    <path class="cls-1" d="m122.93,28.11c-.99-.55-1.78-1.32-2.36-2.31-.58-.99-.87-2.1-.87-3.34s.29-2.35.87-3.33c.58-.98,1.37-1.75,2.36-2.3.99-.55,2.08-.83,3.27-.83s2.28.28,3.27.83c.99.55,1.77,1.32,2.34,2.3.57.98.86,2.09.86,3.33s-.29,2.35-.86,3.34c-.58.99-1.36,1.76-2.34,2.31-.98.55-2.07.83-3.26.83s-2.28-.28-3.27-.83Zm5.69-2.99c.61-.67.91-1.56.91-2.66s-.3-2.01-.91-2.67c-.61-.67-1.41-1-2.42-1s-1.83.33-2.44.99c-.61.66-.91,1.55-.91,2.68s.3,2.01.91,2.67c.61.67,1.42,1,2.44,1s1.82-.34,2.42-1.01Z"/>
    <path class="cls-1" d="m143.66,20.17c-.23-.42-.55-.74-.98-.96-.43-.22-.93-.33-1.5-.33-1,0-1.79.33-2.39.98-.6.65-.9,1.53-.9,2.62,0,1.16.32,2.07.95,2.73.63.65,1.5.98,2.6.98.76,0,1.39-.19,1.92-.58.52-.38.9-.94,1.14-1.66h-3.91v-2.27h6.7v2.86c-.23.77-.62,1.48-1.16,2.14-.55.66-1.24,1.19-2.08,1.6-.84.41-1.79.61-2.84.61-1.25,0-2.36-.27-3.34-.82-.98-.55-1.74-1.31-2.29-2.28-.55-.97-.82-2.08-.82-3.33s.27-2.36.82-3.34,1.3-1.74,2.28-2.29c.97-.55,2.08-.82,3.33-.82,1.51,0,2.79.37,3.83,1.1,1.04.73,1.73,1.75,2.06,3.04h-3.4Z"/>
    <path class="cls-1" d="m156.33,28.81l-2.63-4.77h-.74v4.77h-3.08v-12.64h5.17c1,0,1.84.17,2.55.52s1.23.83,1.58,1.43c.35.61.52,1.28.52,2.02,0,.84-.24,1.59-.71,2.25-.47.66-1.17,1.13-2.1,1.4l2.92,5h-3.47Zm-3.37-6.95h1.91c.56,0,.99-.14,1.27-.41.28-.28.42-.67.42-1.17s-.14-.86-.42-1.13c-.28-.28-.71-.41-1.27-.41h-1.91v3.13Z"/>
    <path class="cls-1" d="m170.39,26.58h-4.72l-.76,2.23h-3.22l4.57-12.64h3.56l4.57,12.64h-3.26l-.76-2.23Zm-.79-2.38l-1.57-4.63-1.55,4.63h3.11Z"/>
    <path class="cls-1" d="m185.81,22.25c-.34.61-.85,1.1-1.55,1.47-.7.37-1.56.56-2.59.56h-1.91v4.54h-3.08v-12.64h4.99c1.01,0,1.86.17,2.56.52.7.35,1.22.83,1.57,1.44.35.61.52,1.31.52,2.11,0,.73-.17,1.4-.5,2.01Zm-3.06-.84c.29-.28.43-.67.43-1.17s-.14-.89-.43-1.17-.73-.41-1.31-.41h-1.67v3.17h1.67c.59,0,1.03-.14,1.31-.41Z"/>
    <path class="cls-1" d="m199.76,16.17v12.64h-3.08v-5.2h-4.79v5.2h-3.08v-12.64h3.08v4.95h4.79v-4.95h3.08Z"/>
    <path class="cls-1" d="m213.71,16.17l-4.37,8.46v4.18h-3.08v-4.18l-4.37-8.46h3.49l2.45,5.29,2.43-5.29h3.46Z"/>
    <path class="cls-1" d="m229.98,23.42c.44.57.67,1.22.67,1.95,0,1.06-.37,1.89-1.11,2.51s-1.77.93-3.09.93h-5.89v-12.64h5.69c1.28,0,2.29.29,3.02.88.73.59,1.09,1.39,1.09,2.39,0,.74-.2,1.36-.58,1.85-.39.49-.91.83-1.56,1.03.73.16,1.32.52,1.76,1.09Zm-6.34-2.13h2.02c.5,0,.89-.11,1.16-.33.27-.22.41-.55.41-.98s-.14-.76-.41-.99c-.27-.23-.66-.34-1.16-.34h-2.02v2.65Zm3.46,4.69c.28-.23.42-.57.42-1.02s-.15-.79-.44-1.04-.7-.38-1.21-.38h-2.23v2.79h2.27c.52,0,.92-.12,1.2-.35Z"/>
    <path class="cls-1" d="m236.41,26.43h4.03v2.38h-7.11v-12.64h3.08v10.26Z"/>
    <path class="cls-1" d="m245.53,28.11c-.99-.55-1.78-1.32-2.36-2.31-.58-.99-.87-2.1-.87-3.34s.29-2.35.87-3.33c.58-.98,1.37-1.75,2.36-2.3.99-.55,2.08-.83,3.27-.83s2.28.28,3.27.83c.99.55,1.77,1.32,2.34,2.3.57.98.85,2.09.85,3.33s-.29,2.35-.86,3.34c-.58.99-1.36,1.76-2.34,2.31-.98.55-2.07.83-3.26.83s-2.28-.28-3.27-.83Zm5.69-2.99c.61-.67.91-1.56.91-2.66s-.3-2.01-.91-2.67c-.61-.67-1.41-1-2.42-1s-1.83.33-2.44.99c-.61.66-.91,1.55-.91,2.68s.3,2.01.91,2.67c.61.67,1.42,1,2.44,1s1.82-.34,2.42-1.01Z"/>
    <path class="cls-1" d="m266.25,20.17c-.23-.42-.55-.74-.98-.96-.43-.22-.93-.33-1.5-.33-1,0-1.79.33-2.39.98-.6.65-.9,1.53-.9,2.62,0,1.16.32,2.07.95,2.73.63.65,1.5.98,2.6.98.76,0,1.39-.19,1.92-.58.52-.38.9-.94,1.14-1.66h-3.91v-2.27h6.7v2.86c-.23.77-.62,1.48-1.16,2.14-.55.66-1.24,1.19-2.08,1.6-.84.41-1.79.61-2.84.61-1.25,0-2.36-.27-3.34-.82-.98-.55-1.74-1.31-2.29-2.28-.55-.97-.82-2.08-.82-3.33s.27-2.36.82-3.34,1.3-1.74,2.28-2.29c.97-.55,2.08-.82,3.33-.82,1.51,0,2.79.37,3.83,1.1,1.04.73,1.73,1.75,2.06,3.04h-3.4Z"/>
  </g>
  <g>
    <path class="cls-1" d="m59.4,25.38h0c-.19-.83-.6-1.58-1.25-2.18-.97-.97-2.32-1.53-3.76-1.53h-.88c.74,2.32,1.16,4.73,1.16,7.28,0,13.13-10.67,23.79-23.79,23.79-5.24,0-10.11-1.72-14.05-4.59h-3.29c-.14.05-.28.05-.42.05h-3.62c5.24,5.84,12.89,9.51,21.34,9.51,15.82,0,28.71-12.89,28.71-28.76.09-1.21,0-2.41-.14-3.57ZM30.93.24C15.11.24,2.17,13.13,2.17,28.95c0,.83.05,1.67.09,2.46.09.42.14.83.28,1.25.19.83.6,1.58,1.25,2.18.97.97,2.32,1.53,3.76,1.53h.79c-.79-2.32-1.21-4.82-1.21-7.42,0-13.13,10.67-23.79,23.79-23.79,5.33,0,10.3,1.76,14.24,4.78h3.2c.14-.05.28-.05.42-.05h3.62C47.16,3.95,39.46.24,30.93.24Z"/>
    <g>
      <path class="cls-1" d="m58.48,20.32c-.09-.05-.14-.09-.23-.14h0c.09.05.19.09.23.14Z"/>
      <path class="cls-1" d="m58.24,20.18h0c.09.05.14.09.23.14-.05-.05-.14-.09-.23-.14Z"/>
      <path class="cls-1" d="m62.37,28.02c-.09-1.11-.28-2.18-.56-3.25-.32-1.3-.97-2.41-1.9-3.34-.14-.14-.28-.28-.42-.37-.05-.05-.14-.09-.19-.19-.14-.14-.32-.23-.46-.37h0s-.05-.05-.09-.05c-.09-.05-.14-.09-.23-.14s-.14-.09-.23-.14-.19-.09-.28-.14c-.14-.09-.32-.19-.51-.23-.05-.05-.14-.05-.19-.09-.09-.05-.14-.05-.19-.09-.09-.05-.14-.05-.23-.09-.14-.05-.32-.09-.46-.14-.19-.05-.37-.09-.6-.14h-.09c-.09,0-.19-.05-.32-.05-.19-.05-.37-.05-.56-.05H18.31c0-2.09.97-3.94,2.55-5.19,1.25-.97,2.88-1.58,4.59-1.58h23.38l-.05-.05h3.15c.23,0,.46,0,.65.05h.14c.19,0,.32.05.46.05s.32.05.46.09c.14.05.32.09.46.09t.09.05c.09.05.23.09.32.09.05,0,.09,0,.14.05h.05c.23.09.42.19.65.28.05,0,.09.05.09.05.09.05.23.09.32.19.19.09.32.19.51.28.19.09.37.23.51.37.14.09.28.23.42.37.19.14.32.32.51.51.09.09.14.19.23.23.05.09.09.14.19.23s.19.23.28.37c.14.19.23.37.37.6,1.95,3.53,3.25,7.51,3.57,11.73Z"/>
    </g>
    <polygon class="cls-1" points="46.6 25.56 45.26 32.34 15.57 32.34 16.96 25.56 46.6 25.56"/>
    <path class="cls-1" d="m43.68,38.88c0,2.09-1.02,3.94-2.55,5.19-1.25.97-2.88,1.58-4.64,1.58H13.11l.05.05h-3.15c-.97,0-1.95-.19-2.78-.51-1.48-.56-2.74-1.53-3.62-2.83-.14-.19-.23-.37-.37-.6C1.19,38.23-.1,34.24-.43,30.02c.09,1.11.28,2.18.56,3.25.32,1.3.97,2.41,1.9,3.34.46.46.97.83,1.53,1.16,1.16.7,2.55,1.07,3.99,1.07h36.13v.05Z"/>
  </g>
</svg>