<?xml version="1.0" encoding="utf-8"?>
<!-- Generator: Adobe Illustrator 27.1.0, SVG Export Plug-In . SVG Version: 6.00 Build 0)  -->
<svg version="1.1" id="Layer_1" xmlns="http://www.w3.org/2000/svg" xmlns:xlink="http://www.w3.org/1999/xlink" x="0px" y="0px"
	 viewBox="0 0 270.5 58" style="enable-background:new 0 0 270.5 58;" xml:space="preserve">
<style type="text/css">
	.st0{fill:#3C3C3B;}
	.st1{fill:#31C4B5;}
</style>
<g>
	<g>
		<path class="st0" d="M74.5,44.1c-0.1-0.1-0.1-0.1-0.1-0.2v-7.8c0-0.1,0-0.2,0.1-0.2s0.1-0.1,0.2-0.1h0.6c0.1,0,0.2,0.1,0.3,0.2
			l2.5,4.9l2.6-4.9c0.1-0.1,0.2-0.2,0.3-0.2h0.6c0.1,0,0.2,0,0.2,0.1s0.1,0.1,0.1,0.2v7.8c0,0.1,0,0.1-0.1,0.2
			c-0.1,0.1-0.1,0.1-0.2,0.1h-0.5c-0.1,0-0.1,0-0.2-0.1s-0.1-0.1-0.1-0.2V38l-2,3.9c-0.1,0.2-0.2,0.2-0.4,0.2H78
			c-0.2,0-0.3-0.1-0.4-0.2l-2-3.9v5.9c0,0.1,0,0.1-0.1,0.2c-0.1,0.1-0.1,0.1-0.2,0.1h-0.5C74.6,44.1,74.5,44.1,74.5,44.1z"/>
		<path class="st0" d="M84.3,44c-0.3-0.2-0.6-0.4-0.8-0.6c-0.2-0.3-0.3-0.6-0.3-0.9c0-0.5,0.2-1,0.6-1.3s1-0.6,1.7-0.7l1.8-0.2V40
			c0-0.8-0.5-1.2-1.4-1.2c-0.4,0-0.7,0.1-0.9,0.2c-0.2,0.1-0.4,0.3-0.5,0.5c0,0.1-0.1,0.1-0.1,0.2h-0.1h-0.5c-0.1,0-0.1,0-0.2-0.1
			s-0.1-0.1-0.1-0.2c0-0.2,0.1-0.4,0.3-0.6c0.2-0.2,0.4-0.5,0.8-0.6c0.4-0.2,0.8-0.3,1.3-0.3c0.9,0,1.5,0.2,1.9,0.6
			c0.4,0.4,0.6,0.9,0.6,1.5v3.9c0,0.1,0,0.1-0.1,0.2c-0.1,0.1-0.1,0.1-0.2,0.1h-0.5c-0.1,0-0.1,0-0.2-0.1c0-0.1-0.1-0.1-0.1-0.2
			v-0.5c-0.2,0.3-0.4,0.5-0.8,0.7c-0.3,0.2-0.8,0.3-1.3,0.3C85,44.3,84.6,44.2,84.3,44z M86.9,42.9c0.3-0.3,0.5-0.8,0.5-1.5v-0.3
			L86,41.3c-0.6,0.1-1,0.2-1.3,0.4s-0.4,0.4-0.4,0.7s0.1,0.6,0.4,0.7c0.3,0.2,0.6,0.3,0.9,0.3C86.2,43.4,86.6,43.2,86.9,42.9z"/>
		<path class="st0" d="M90.6,43.5c-0.4-0.5-0.6-1.2-0.7-2v-0.4v-0.4c0-0.8,0.3-1.5,0.7-2c0.4-0.5,1-0.8,1.9-0.8s1.5,0.3,1.9,0.9
			v-2.7c0-0.1,0-0.1,0.1-0.2c0.1-0.1,0.1-0.1,0.2-0.1h0.5c0.1,0,0.1,0,0.2,0.1s0.1,0.1,0.1,0.2V44c0,0.1,0,0.1-0.1,0.2
			c-0.1,0.1-0.1,0.1-0.2,0.1h-0.5c-0.1,0-0.1,0-0.2-0.1c0-0.1-0.1-0.1-0.1-0.2v-0.5c-0.5,0.6-1.1,0.9-2,0.9
			C91.6,44.3,91,44,90.6,43.5z M93.9,42.8c0.3-0.4,0.4-0.8,0.5-1.3c0-0.1,0-0.2,0-0.5c0-0.2,0-0.4,0-0.5c0-0.5-0.2-0.9-0.5-1.3
			s-0.7-0.4-1.2-0.4c-0.6,0-1,0.2-1.2,0.5s-0.4,0.8-0.4,1.4V41c0,1.5,0.6,2.3,1.7,2.3C93.3,43.3,93.7,43.2,93.9,42.8z"/>
		<path class="st0" d="M97.8,43.5c-0.5-0.5-0.7-1.2-0.8-2.1V41v-0.4c0-0.9,0.3-1.5,0.8-2s1.1-0.8,1.9-0.8c0.9,0,1.5,0.3,2,0.8
			c0.5,0.6,0.7,1.3,0.7,2.3v0.2c0,0.1,0,0.1-0.1,0.2c-0.1,0.1-0.1,0.1-0.2,0.1H98v0.1c0,0.5,0.2,1,0.5,1.3s0.7,0.5,1.2,0.5
			c0.4,0,0.7-0.1,0.9-0.2c0.2-0.1,0.4-0.3,0.5-0.5c0.1-0.1,0.1-0.2,0.2-0.2s0.1,0,0.2,0h0.5c0.1,0,0.1,0,0.2,0.1
			c0.1,0,0.1,0.1,0.1,0.2c0,0.2-0.1,0.4-0.3,0.6c-0.2,0.2-0.5,0.5-0.9,0.6c-0.4,0.2-0.8,0.3-1.3,0.3C98.9,44.3,98.3,44,97.8,43.5z
			 M101.4,40.6L101.4,40.6c0-0.6-0.2-1-0.5-1.4c-0.3-0.3-0.7-0.5-1.2-0.5s-0.9,0.2-1.2,0.5s-0.4,0.8-0.4,1.4l0,0H101.4z"/>
		<path class="st0" d="M108,44.1c-0.1,0-0.1-0.1-0.1-0.2l-1.7-5.5v-0.1c0-0.1,0-0.1,0.1-0.2c0,0,0.1-0.1,0.2-0.1h0.5
			c0.1,0,0.1,0,0.2,0.1c0.1,0,0.1,0.1,0.1,0.1l1.3,4.5l1.4-4.5c0-0.1,0.1-0.1,0.1-0.2c0.1-0.1,0.1-0.1,0.2-0.1h0.4
			c0.1,0,0.2,0,0.2,0.1c0.1,0.1,0.1,0.1,0.1,0.2l1.4,4.5l1.3-4.5c0,0,0-0.1,0.1-0.1s0.1-0.1,0.2-0.1h0.5c0.1,0,0.1,0,0.2,0.1
			c0,0,0.1,0.1,0.1,0.2v0.1l-1.7,5.5c0,0.1-0.1,0.2-0.1,0.2s-0.1,0.1-0.2,0.1h-0.4c-0.2,0-0.3-0.1-0.4-0.3l-1.4-4.3l-1.4,4.3
			c-0.1,0.2-0.2,0.3-0.4,0.3h-0.4C108.1,44.1,108,44.1,108,44.1z"/>
		<path class="st0" d="M116.1,36.7c-0.1-0.1-0.1-0.1-0.1-0.2v-0.6c0-0.1,0-0.1,0.1-0.2s0.1-0.1,0.2-0.1h0.7c0.1,0,0.1,0,0.2,0.1
			s0.1,0.1,0.1,0.2v0.6c0,0.1,0,0.1-0.1,0.2c-0.1,0.1-0.1,0.1-0.2,0.1h-0.7C116.2,36.8,116.1,36.8,116.1,36.7z M116.1,44.1
			C116,44,116,44,116,43.9v-5.6c0-0.1,0-0.1,0.1-0.2c0.1-0.1,0.1-0.1,0.2-0.1h0.5c0.1,0,0.1,0,0.2,0.1s0.1,0.1,0.1,0.2v5.6
			c0,0.1,0,0.1-0.1,0.2s-0.1,0.1-0.2,0.1h-0.5C116.3,44.1,116.2,44.1,116.1,44.1z"/>
		<path class="st0" d="M119.5,42.1v-3.2h-0.9c-0.1,0-0.1,0-0.2-0.1s-0.1-0.1-0.1-0.2v-0.4c0-0.1,0-0.1,0.1-0.2
			c0-0.1,0.1-0.1,0.2-0.1h0.9v-2c0-0.1,0-0.1,0.1-0.2c0-0.1,0.1-0.1,0.2-0.1h0.5c0.1,0,0.1,0,0.2,0.1s0.1,0.1,0.1,0.2v2h1.5
			c0.1,0,0.1,0,0.2,0.1s0.1,0.1,0.1,0.2v0.4c0,0.1,0,0.1-0.1,0.2c-0.1,0-0.1,0.1-0.2,0.1h-1.5V42c0,0.4,0.1,0.7,0.2,0.9
			s0.4,0.3,0.7,0.3h0.7c0.1,0,0.1,0,0.2,0.1s0.1,0.1,0.1,0.2v0.4c0,0.1,0,0.1-0.1,0.2s-0.1,0.1-0.2,0.1h-0.8
			C120.1,44.1,119.5,43.5,119.5,42.1z"/>
		<path class="st0" d="M123.6,44.1c-0.1-0.1-0.1-0.1-0.1-0.2V36c0-0.1,0-0.2,0.1-0.2s0.1-0.1,0.2-0.1h0.5c0.1,0,0.2,0,0.2,0.1
			c0,0,0.1,0.1,0.1,0.2v2.8c0.2-0.3,0.5-0.5,0.8-0.7s0.7-0.2,1.2-0.2c0.8,0,1.4,0.2,1.8,0.7c0.4,0.5,0.6,1.1,0.6,1.9v3.4
			c0,0.1,0,0.1-0.1,0.2c-0.1,0.1-0.1,0.1-0.2,0.1h-0.6c-0.1,0-0.1,0-0.2-0.1s-0.1-0.1-0.1-0.2v-3.3c0-0.6-0.1-1-0.4-1.3
			s-0.7-0.5-1.2-0.5s-0.9,0.2-1.2,0.5c-0.3,0.3-0.5,0.8-0.5,1.3v3.3c0,0.1,0,0.1-0.1,0.2c-0.1,0.1-0.1,0.1-0.2,0.1h-0.5
			C123.7,44.1,123.7,44.1,123.6,44.1z"/>
		<path class="st0" d="M133.9,44.1c0-0.1-0.1-0.1-0.1-0.2v-7.8c0-0.1,0-0.2,0.1-0.2c0-0.1,0.1-0.1,0.2-0.1h0.5c0.1,0,0.1,0,0.2,0
			l0.1,0.1l4,6.1v-6c0-0.1,0-0.2,0.1-0.2c0.1-0.1,0.1-0.1,0.2-0.1h0.5c0.1,0,0.2,0,0.2,0.1c0.1,0.1,0.1,0.1,0.1,0.2v7.7
			c0,0.1,0,0.1-0.1,0.2c-0.1,0.1-0.1,0.1-0.2,0.1h-0.5c-0.1,0-0.2-0.1-0.3-0.2l-4-6.1v6c0,0.1,0,0.1-0.1,0.2
			c-0.1,0.1-0.1,0.1-0.2,0.1h-0.5C134,44.1,133.9,44.1,133.9,44.1z"/>
		<path class="st0" d="M142.4,43.5c-0.5-0.5-0.7-1.1-0.8-2V41v-0.5c0-0.8,0.3-1.5,0.8-2s1.1-0.7,2-0.7s1.5,0.2,2,0.7s0.7,1.1,0.8,2
			c0,0.2,0,0.3,0,0.5s0,0.3,0,0.5c0,0.8-0.3,1.5-0.8,2s-1.1,0.7-2,0.7S142.9,44,142.4,43.5z M145.6,42.9c0.3-0.3,0.5-0.8,0.5-1.4
			c0-0.1,0-0.2,0-0.5s0-0.4,0-0.5c0-0.6-0.2-1.1-0.5-1.4c-0.3-0.3-0.7-0.5-1.2-0.5s-0.9,0.2-1.2,0.5s-0.5,0.8-0.5,1.4V41v0.5
			c0,0.6,0.2,1.1,0.5,1.4c0.3,0.3,0.7,0.5,1.2,0.5S145.3,43.2,145.6,42.9z"/>
		<path class="st0" d="M149.1,43.5c-0.4-0.5-0.6-1.2-0.7-2v-0.4v-0.4c0-0.8,0.3-1.5,0.7-2s1-0.8,1.9-0.8c0.8,0,1.5,0.3,1.9,0.9v-2.7
			c0-0.1,0-0.1,0.1-0.2c0.1-0.1,0.1-0.1,0.2-0.1h0.5c0.1,0,0.1,0,0.2,0.1C154,36,154,36,154,36.1V44c0,0.1,0,0.1-0.1,0.2
			s-0.1,0.1-0.2,0.1h-0.5c-0.1,0-0.1,0-0.2-0.1c0-0.1-0.1-0.1-0.1-0.2v-0.5c-0.5,0.6-1.1,0.9-2,0.9C150.1,44.3,149.5,44,149.1,43.5z
			 M152.4,42.8c0.3-0.4,0.4-0.8,0.5-1.3c0-0.1,0-0.2,0-0.5c0-0.2,0-0.4,0-0.5c0-0.5-0.2-0.9-0.5-1.3s-0.7-0.5-1.2-0.5
			c-0.6,0-1,0.2-1.2,0.5c-0.3,0.4-0.4,0.8-0.4,1.4v0.3c0,1.5,0.6,2.3,1.7,2.3C151.7,43.3,152.1,43.2,152.4,42.8z"/>
		<path class="st0" d="M156.3,43.5c-0.5-0.5-0.7-1.2-0.8-2.1V41v-0.4c0-0.9,0.3-1.5,0.8-2s1.1-0.8,1.9-0.8c0.9,0,1.5,0.3,2,0.8
			c0.5,0.6,0.7,1.3,0.7,2.3v0.2c0,0.1,0,0.1-0.1,0.2c-0.1,0.1-0.1,0.1-0.2,0.1h-4.1v0.1c0,0.5,0.2,1,0.5,1.3s0.7,0.5,1.2,0.5
			c0.4,0,0.7-0.1,0.9-0.2c0.2-0.1,0.4-0.3,0.5-0.5c0.1-0.1,0.1-0.2,0.2-0.2c0,0,0.1,0,0.2,0h0.5c0.1,0,0.1,0,0.2,0.1
			c0.1,0,0.1,0.1,0.1,0.2c0,0.2-0.1,0.4-0.3,0.6c-0.2,0.2-0.5,0.5-0.9,0.6c-0.4,0.2-0.8,0.3-1.3,0.3C157.4,44.3,156.7,44,156.3,43.5
			z M159.9,40.6L159.9,40.6c0-0.6-0.2-1-0.5-1.4s-0.7-0.5-1.2-0.5s-0.9,0.2-1.2,0.5s-0.4,0.8-0.4,1.4l0,0H159.9z"/>
		<path class="st0" d="M162.4,44.1c-0.1-0.1-0.1-0.1-0.1-0.2v-0.8c0-0.1,0-0.1,0.1-0.2s0.1-0.1,0.2-0.1h0.8c0.1,0,0.1,0,0.2,0.1
			s0.1,0.1,0.1,0.2v0.8c0,0.1,0,0.1-0.1,0.2s-0.1,0.1-0.2,0.1h-0.8C162.5,44.1,162.4,44.1,162.4,44.1z"/>
		<path class="st0" d="M164,46.3c0-0.1-0.1-0.1-0.1-0.2v-0.3c0-0.1,0-0.1,0.1-0.2c0,0,0.1-0.1,0.2-0.1h0.2c0.4,0,0.6-0.1,0.8-0.3
			c0.1-0.2,0.2-0.5,0.2-0.9v-6.1c0-0.1,0-0.2,0.1-0.2s0.1-0.1,0.2-0.1h0.5c0.1,0,0.1,0,0.2,0.1c0.1,0.1,0.1,0.1,0.1,0.2v6.1
			c0,1.4-0.7,2.1-2,2.1h-0.2C164.1,46.4,164.1,46.4,164,46.3z M165.3,36.7c-0.1-0.1-0.1-0.1-0.1-0.2v-0.6c0-0.1,0-0.1,0.1-0.2
			c0.1-0.1,0.1-0.1,0.2-0.1h0.7c0.1,0,0.1,0,0.2,0.1s0.1,0.1,0.1,0.2v0.6c0,0.1,0,0.1-0.1,0.2c-0.1,0.1-0.1,0.1-0.2,0.1h-0.7
			C165.4,36.8,165.4,36.8,165.3,36.7z"/>
		<path class="st0" d="M168.9,44c-0.4-0.2-0.7-0.4-0.8-0.6c-0.2-0.2-0.3-0.4-0.3-0.6c0-0.1,0-0.1,0.1-0.2c0.1,0,0.1-0.1,0.2-0.1h0.5
			h0.1l0.1,0.1c0.2,0.2,0.4,0.4,0.6,0.5c0.2,0.1,0.5,0.2,0.9,0.2s0.8-0.1,1-0.2c0.3-0.2,0.4-0.4,0.4-0.7c0-0.2-0.1-0.4-0.2-0.5
			c-0.1-0.1-0.3-0.2-0.6-0.3s-0.6-0.2-1.1-0.3c-0.7-0.2-1.2-0.4-1.5-0.7s-0.4-0.7-0.4-1.1c0-0.3,0.1-0.6,0.3-0.8
			c0.2-0.3,0.4-0.5,0.8-0.7c0.3-0.2,0.8-0.3,1.2-0.3c0.5,0,0.9,0.1,1.3,0.2c0.4,0.2,0.6,0.4,0.8,0.6c0.2,0.2,0.3,0.4,0.3,0.6
			c0,0.1,0,0.1-0.1,0.2c-0.1,0-0.1,0.1-0.2,0.1h-0.5c-0.1,0-0.2,0-0.2-0.1c-0.1-0.2-0.2-0.3-0.3-0.4c-0.1-0.1-0.2-0.2-0.4-0.2
			c-0.2-0.1-0.4-0.1-0.7-0.1c-0.4,0-0.7,0.1-0.9,0.2c-0.2,0.2-0.3,0.4-0.3,0.6c0,0.2,0,0.3,0.1,0.4c0.1,0.1,0.3,0.2,0.5,0.3
			s0.6,0.2,1.1,0.3c0.8,0.2,1.3,0.4,1.6,0.7s0.5,0.7,0.5,1.1c0,0.3-0.1,0.7-0.3,0.9c-0.2,0.3-0.5,0.5-0.9,0.7s-0.8,0.2-1.4,0.2
			C169.8,44.3,169.3,44.2,168.9,44z"/>
	</g>
</g>
<g>
	<path class="st0" d="M87.2,16.2l-4.5,12.6h-3.9l-4.5-12.6h3.3l3.1,9.5l3.2-9.5H87.2z"/>
	<path class="st0" d="M92.5,16.2v12.6h-3.1V16.2H92.5z"/>
	<path class="st0" d="M103.8,17c1,0.5,1.8,1.3,2.3,2.2s0.8,2.1,0.8,3.3c0,1.2-0.3,2.3-0.8,3.3s-1.3,1.7-2.3,2.2s-2.2,0.8-3.5,0.8
		h-4.7V16.2h4.7C101.7,16.2,102.8,16.4,103.8,17z M102.9,25.2c0.6-0.6,1-1.5,1-2.7s-0.3-2.1-1-2.7s-1.6-1-2.7-1h-1.5v7.3h1.5
		C101.3,26.1,102.2,25.8,102.9,25.2z"/>
	<path class="st0" d="M112.7,18.6v2.6h4.1v2.4h-4.1v2.8h4.7v2.5h-7.7V16.2h7.7v2.5h-4.7V18.6z"/>
	<path class="st0" d="M122.9,28.1c-1-0.6-1.8-1.3-2.4-2.3s-0.9-2.1-0.9-3.3c0-1.2,0.3-2.3,0.9-3.3s1.4-1.8,2.4-2.3
		c1-0.6,2.1-0.8,3.3-0.8c1.2,0,2.3,0.3,3.3,0.8c1,0.6,1.8,1.3,2.3,2.3c0.6,1,0.9,2.1,0.9,3.3c0,1.2-0.3,2.3-0.9,3.3
		c-0.6,1-1.4,1.8-2.3,2.3c-1,0.6-2.1,0.8-3.3,0.8C125,28.9,123.9,28.7,122.9,28.1z M128.6,25.1c0.6-0.7,0.9-1.6,0.9-2.7
		s-0.3-2-0.9-2.7c-0.6-0.7-1.4-1-2.4-1s-1.8,0.3-2.4,1s-0.9,1.6-0.9,2.7s0.3,2,0.9,2.7s1.4,1,2.4,1C127.2,26.1,128,25.8,128.6,25.1z
		"/>
	<path class="st0" d="M143.7,20.2c-0.2-0.4-0.6-0.7-1-1c-0.4-0.2-0.9-0.3-1.5-0.3c-1,0-1.8,0.3-2.4,1c-0.6,0.7-0.9,1.5-0.9,2.6
		c0,1.2,0.3,2.1,0.9,2.7c0.6,0.7,1.5,1,2.6,1c0.8,0,1.4-0.2,1.9-0.6s0.9-0.9,1.1-1.7h-3.9v-2.3h6.7v2.9c-0.2,0.8-0.6,1.5-1.2,2.1
		c-0.5,0.7-1.2,1.2-2.1,1.6c-0.8,0.4-1.8,0.6-2.8,0.6c-1.2,0-2.4-0.3-3.3-0.8c-1-0.5-1.7-1.3-2.3-2.3c-0.5-1-0.8-2.1-0.8-3.3
		s0.3-2.4,0.8-3.3s1.3-1.7,2.3-2.3c1-0.5,2.1-0.8,3.3-0.8c1.5,0,2.8,0.4,3.8,1.1s1.7,1.7,2.1,3L143.7,20.2L143.7,20.2z"/>
	<path class="st0" d="M156.3,28.8l-2.6-4.8H153v4.8h-3.1V16.2h5.2c1,0,1.8,0.2,2.5,0.5s1.2,0.8,1.6,1.4c0.3,0.6,0.5,1.3,0.5,2
		c0,0.8-0.2,1.6-0.7,2.2c-0.5,0.7-1.2,1.1-2.1,1.4l2.9,5L156.3,28.8L156.3,28.8z M153,21.9h1.9c0.6,0,1-0.1,1.3-0.4s0.4-0.7,0.4-1.2
		s-0.1-0.9-0.4-1.1c-0.3-0.3-0.7-0.4-1.3-0.4H153V21.9z"/>
	<path class="st0" d="M170.4,26.6h-4.7l-0.8,2.2h-3.2l4.6-12.6h3.6l4.6,12.6h-3.3L170.4,26.6z M169.6,24.2l-1.6-4.6l-1.5,4.6H169.6z
		"/>
	<path class="st0" d="M185.8,22.2c-0.3,0.6-0.9,1.1-1.5,1.5c-0.7,0.4-1.6,0.6-2.6,0.6h-1.9v4.5h-3.1V16.2h5c1,0,1.9,0.2,2.6,0.5
		c0.7,0.3,1.2,0.8,1.6,1.4c0.3,0.6,0.5,1.3,0.5,2.1C186.3,21,186.1,21.6,185.8,22.2z M182.8,21.4c0.3-0.3,0.4-0.7,0.4-1.2
		s-0.1-0.9-0.4-1.2s-0.7-0.4-1.3-0.4h-1.7v3.2h1.7C182,21.8,182.5,21.7,182.8,21.4z"/>
	<path class="st0" d="M199.8,16.2v12.6h-3.1v-5.2h-4.8v5.2h-3.1V16.2h3.1v5h4.8v-5H199.8z"/>
	<path class="st0" d="M213.7,16.2l-4.4,8.5v4.2h-3.1v-4.2l-4.4-8.5h3.5l2.4,5.3l2.4-5.3H213.7z"/>
	<path class="st0" d="M230,23.4c0.4,0.6,0.7,1.2,0.7,2c0,1.1-0.4,1.9-1.1,2.5s-1.8,0.9-3.1,0.9h-5.9V16.2h5.7c1.3,0,2.3,0.3,3,0.9
		s1.1,1.4,1.1,2.4c0,0.7-0.2,1.4-0.6,1.9c-0.4,0.5-0.9,0.8-1.6,1C229,22.5,229.5,22.8,230,23.4z M223.6,21.3h2
		c0.5,0,0.9-0.1,1.2-0.3c0.3-0.2,0.4-0.5,0.4-1s-0.1-0.8-0.4-1c-0.3-0.2-0.7-0.3-1.2-0.3h-2V21.3z M227.1,26c0.3-0.2,0.4-0.6,0.4-1
		s-0.1-0.8-0.4-1s-0.7-0.4-1.2-0.4h-2.2v2.8h2.3C226.4,26.3,226.8,26.2,227.1,26z"/>
	<path class="st0" d="M236.4,26.4h4v2.4h-7.1V16.2h3.1V26.4z"/>
	<path class="st0" d="M245.5,28.1c-1-0.6-1.8-1.3-2.4-2.3c-0.6-1-0.9-2.1-0.9-3.3c0-1.2,0.3-2.3,0.9-3.3c0.6-1,1.4-1.8,2.4-2.3
		c1-0.6,2.1-0.8,3.3-0.8s2.3,0.3,3.3,0.8c1,0.6,1.8,1.3,2.3,2.3c0.6,1,0.9,2.1,0.9,3.3c0,1.2-0.3,2.3-0.9,3.3
		c-0.6,1-1.4,1.8-2.3,2.3c-1,0.6-2.1,0.8-3.3,0.8S246.5,28.7,245.5,28.1z M251.2,25.1c0.6-0.7,0.9-1.6,0.9-2.7s-0.3-2-0.9-2.7
		c-0.6-0.7-1.4-1-2.4-1s-1.8,0.3-2.4,1c-0.6,0.7-0.9,1.6-0.9,2.7s0.3,2,0.9,2.7c0.6,0.7,1.4,1,2.4,1S250.6,25.8,251.2,25.1z"/>
	<path class="st0" d="M266.3,20.2c-0.2-0.4-0.6-0.7-1-1c-0.4-0.2-0.9-0.3-1.5-0.3c-1,0-1.8,0.3-2.4,1s-0.9,1.5-0.9,2.6
		c0,1.2,0.3,2.1,0.9,2.7c0.6,0.7,1.5,1,2.6,1c0.8,0,1.4-0.2,1.9-0.6s0.9-0.9,1.1-1.7h-3.9v-2.3h6.7v2.9c-0.2,0.8-0.6,1.5-1.2,2.1
		c-0.5,0.7-1.2,1.2-2.1,1.6c-0.8,0.4-1.8,0.6-2.8,0.6c-1.2,0-2.4-0.3-3.3-0.8c-1-0.5-1.7-1.3-2.3-2.3c-0.5-1-0.8-2.1-0.8-3.3
		s0.3-2.4,0.8-3.3s1.3-1.7,2.3-2.3c1-0.5,2.1-0.8,3.3-0.8c1.5,0,2.8,0.4,3.8,1.1s1.7,1.7,2.1,3L266.3,20.2L266.3,20.2z"/>
</g>
<g>
	<g>
		<path class="st1" d="M59.4,25.4L59.4,25.4c-0.2-0.8-0.6-1.6-1.3-2.2c-1-1-2.3-1.5-3.8-1.5h-0.9c0.7,2.3,1.2,4.7,1.2,7.3
			c0,13.1-10.7,23.8-23.8,23.8c-5.2,0-10.1-1.7-14.1-4.6h-3.3c-0.1,0-0.3,0-0.4,0h-3c-0.1,0-0.3,0-0.5,0c5.2,5.8,12.9,9.5,21.3,9.5
			c15.8,0,28.7-12.9,28.7-28.8C59.6,27.7,59.5,26.5,59.4,25.4z M30.9,0.2C15.1,0.2,2.2,13.1,2.2,28.9c0,0.8,0,1.7,0.1,2.5
			c0.1,0.4,0.1,0.8,0.3,1.3c0.2,0.8,0.6,1.6,1.3,2.2c1,1,2.3,1.5,3.8,1.5h0.8c-0.8-2.3-1.2-4.8-1.2-7.4C7.3,15.9,18,5.2,31.1,5.2
			c5.3,0,10.3,1.8,14.2,4.8h3.2c0.1,0,0.3,0,0.4,0h3.2c0.1,0,0.3,0,0.5,0C47.2,4,39.5,0.2,30.9,0.2z"/>
		<g>
			<path class="st1" d="M58.5,20.3c-0.1,0-0.1-0.1-0.2-0.1l0,0C58.3,20.2,58.4,20.3,58.5,20.3z"/>
			<path class="st1" d="M58.2,20.2L58.2,20.2c0.1,0,0.1,0.1,0.2,0.1C58.4,20.3,58.3,20.2,58.2,20.2z"/>
			<path class="st1" d="M62.4,28c-0.1-1.1-0.3-2.2-0.6-3.2c-0.3-1.3-1-2.4-1.9-3.3c-0.1-0.1-0.3-0.3-0.4-0.4c0,0-0.1-0.1-0.2-0.2
				c-0.1-0.1-0.3-0.2-0.5-0.4l0,0c0,0,0,0-0.1,0s-0.1-0.1-0.2-0.1s-0.1-0.1-0.2-0.1S58.1,20.1,58,20s-0.3-0.2-0.5-0.2
				c0,0-0.1,0-0.2-0.1c-0.1,0-0.1,0-0.2-0.1c-0.1,0-0.1,0-0.2-0.1c-0.1,0-0.3-0.1-0.5-0.1s-0.4-0.1-0.6-0.1h-0.1c-0.1,0-0.2,0-0.3,0
				c-0.2,0-0.4,0-0.6,0s-0.3,0-0.5,0h-36c0-2.1,1-3.9,2.6-5.2c1.3-1,2.9-1.6,4.6-1.6h23.4l0,0h3.2c0.2,0,0.5,0,0.6,0h0.1
				c0.2,0,0.3,0,0.5,0c0.1,0,0.3,0,0.5,0.1c0.1,0,0.3,0.1,0.5,0.1c0,0,0,0,0.1,0s0.2,0.1,0.3,0.1h0.1l0,0c0.2,0.1,0.4,0.2,0.6,0.3
				h0.1c0.1,0,0.2,0.1,0.3,0.2c0.2,0.1,0.3,0.2,0.5,0.3s0.4,0.2,0.5,0.4c0.1,0.1,0.3,0.2,0.4,0.4c0.2,0.1,0.3,0.3,0.5,0.5
				c0.1,0.1,0.1,0.2,0.2,0.2c0,0.1,0.1,0.1,0.2,0.2s0.2,0.2,0.3,0.4s0.2,0.4,0.4,0.6C60.7,19.8,62,23.8,62.4,28z"/>
		</g>
		<polygon class="st1" points="46.6,25.6 45.3,32.3 15.6,32.3 17,25.6 		"/>
		<g>
			<path class="st1" d="M43.7,38.9c0,2.1-1,3.9-2.6,5.2c-1.3,1-2.9,1.6-4.6,1.6H13.1l0,0H10c-1,0-1.9-0.2-2.8-0.5
				c-1.5-0.6-2.7-1.5-3.6-2.8c-0.1-0.2-0.2-0.4-0.4-0.6c-2-3.5-3.3-7.5-3.7-11.7c0.1,1.1,0.3,2.2,0.6,3.2c0.3,1.3,1,2.4,1.9,3.3
				c0.5,0.5,1,0.8,1.5,1.2c1.2,0.7,2.6,1.1,4,1.1H43.7L43.7,38.9z"/>
		</g>
	</g>
</g>
</svg>
